<svg xmlns="http://www.w3.org/2000/svg" xmlns:xlink="http://www.w3.org/1999/xlink" width="500" zoomAndPan="magnify" viewBox="0 0 375 374.999991" height="500" preserveAspectRatio="xMidYMid meet" version="1.0"><defs><g/><clipPath id="d4bd1e062e"><path d="M 22.835938 165 L 80.585938 165 L 80.585938 215 L 22.835938 215 Z M 22.835938 165 " clip-rule="nonzero"/></clipPath></defs><g clip-path="url(#d4bd1e062e)"><path fill="#ffffff" d="M 48.722656 183.234375 C 51.289062 181.574219 54.964844 181.054688 53.996094 177.265625 C 53.933594 174.914062 54.320312 173.527344 51.875 172.199219 C 48.199219 170.117188 44.535156 168.003906 40.921875 165.8125 C 39.414062 164.902344 38.035156 164.820312 36.519531 165.691406 C 32.636719 167.921875 28.730469 170.113281 24.839844 172.332031 C 23.574219 173.054688 22.890625 174.089844 22.910156 175.632812 C 22.96875 180.03125 23.035156 184.429688 22.90625 188.824219 C 22.851562 190.757812 23.625 191.933594 25.199219 192.8125 C 28.996094 194.9375 32.800781 197.054688 36.570312 199.226562 C 37.917969 200.003906 39.195312 200.050781 40.527344 199.289062 C 47.792969 195.144531 55.027344 190.9375 62.304688 186.808594 C 63.953125 185.882812 65.597656 185.992188 67.234375 186.988281 C 76.613281 192.203125 74.625 190.535156 74.84375 200.851562 C 75.042969 204.761719 69.683594 205.804688 67.101562 207.835938 C 65.304688 208.945312 63.59375 208.804688 61.84375 207.765625 C 56.921875 204.550781 53.289062 204.929688 54.351562 197.800781 C 54.40625 197.011719 54.0625 196.746094 53.363281 197.136719 C 52.074219 197.863281 50.804688 198.621094 49.539062 199.390625 C 49.335938 199.511719 49.066406 199.757812 49.070312 199.941406 C 49.121094 201.953125 49.125 203.976562 49.375 205.964844 C 49.445312 206.519531 50.207031 207.117188 50.792969 207.457031 C 54.628906 209.6875 58.53125 211.808594 62.347656 214.074219 C 64.019531 215.066406 65.503906 214.9375 67.101562 214.011719 C 70.652344 211.957031 74.195312 209.890625 77.800781 207.933594 C 79.648438 206.929688 80.460938 205.546875 80.421875 203.449219 C 80.347656 199.601562 80.300781 195.75 80.46875 191.90625 C 80.570312 189.492188 79.730469 187.9375 77.597656 186.796875 C 73.984375 184.867188 70.453125 182.773438 66.910156 180.714844 C 65.386719 179.828125 63.929688 179.722656 62.363281 180.640625 C 55.246094 184.792969 48.089844 188.878906 40.988281 193.058594 C 39.277344 194.066406 37.746094 194.007812 36.113281 193.011719 C 26.945312 187.546875 28.042969 189.714844 28.164062 178.949219 C 28.132812 177.222656 28.882812 176.074219 30.34375 175.253906 C 33.839844 173.644531 37.398438 169.441406 41.402344 172.261719 C 47.980469 176.746094 49.085938 174.101562 48.722656 183.234375 Z M 48.722656 183.234375 " fill-opacity="1" fill-rule="nonzero"/><path fill="#ffffff" d="M 48.722656 183.234375 C 49.101562 174.117188 47.945312 176.722656 41.402344 172.261719 C 37.394531 169.4375 33.84375 173.648438 30.34375 175.253906 C 28.882812 176.074219 28.132812 177.222656 28.164062 178.949219 C 28.039062 189.671875 26.945312 187.5625 36.113281 193.011719 C 37.746094 194.007812 39.277344 194.066406 40.988281 193.058594 C 48.089844 188.878906 55.246094 184.792969 62.363281 180.640625 C 63.929688 179.722656 65.382812 179.828125 66.910156 180.714844 C 70.453125 182.773438 73.984375 184.867188 77.597656 186.796875 C 79.730469 187.9375 80.570312 189.492188 80.46875 191.90625 C 80.300781 195.75 80.347656 199.601562 80.421875 203.449219 C 80.460938 205.546875 79.648438 206.929688 77.800781 207.933594 C 74.195312 209.890625 70.652344 211.957031 67.101562 214.011719 C 65.503906 214.9375 64.019531 215.066406 62.347656 214.074219 C 58.53125 211.808594 54.628906 209.6875 50.792969 207.457031 C 50.207031 207.117188 49.445312 206.519531 49.375 205.964844 C 49.125 203.976562 49.125 201.953125 49.070312 199.941406 C 49.066406 199.757812 49.335938 199.511719 49.539062 199.390625 C 50.804688 198.621094 52.074219 197.863281 53.363281 197.140625 C 54.0625 196.746094 54.40625 197.011719 54.351562 197.800781 C 53.28125 204.917969 56.945312 204.566406 61.84375 207.769531 C 63.59375 208.804688 65.304688 208.945312 67.101562 207.835938 C 69.691406 205.804688 75.042969 204.75 74.84375 200.855469 C 74.625 190.578125 76.609375 192.1875 67.234375 186.988281 C 65.597656 185.992188 63.953125 185.882812 62.304688 186.8125 C 55.027344 190.9375 47.792969 195.144531 40.527344 199.292969 C 39.199219 200.050781 37.917969 200.003906 36.570312 199.226562 C 32.800781 197.054688 28.996094 194.941406 25.199219 192.816406 C 23.625 191.933594 22.851562 190.753906 22.90625 188.824219 C 23.035156 184.429688 22.96875 180.03125 22.910156 175.632812 C 22.890625 174.089844 23.574219 173.054688 24.839844 172.332031 C 28.730469 170.113281 32.636719 167.921875 36.519531 165.691406 C 38.035156 164.820312 39.414062 164.902344 40.921875 165.816406 C 44.535156 168.003906 48.199219 170.117188 51.875 172.199219 C 54.3125 173.523438 53.9375 174.902344 53.996094 177.265625 C 54.964844 181.054688 51.292969 181.578125 48.722656 183.234375 Z M 48.722656 183.234375 " fill-opacity="1" fill-rule="nonzero"/></g><g fill="#ffffff" fill-opacity="1"><g transform="translate(89.475783, 207.374986)"><g><path d="M 25.296875 -13.535156 L 29.847656 0 L 35.007812 0 L 21.800781 -38.28125 L 15.367188 -38.28125 L 1.609375 0 L 6.710938 0 L 11.207031 -13.535156 Z M 12.539062 -17.421875 L 18.472656 -34.507812 L 24.023438 -17.421875 Z M 12.539062 -17.421875 "/></g></g></g><g fill="#ffffff" fill-opacity="1"><g transform="translate(124.925252, 207.374986)"><g><path d="M 29.792969 -40.777344 L 25.019531 -40.777344 L 25.019531 -25.351562 L 23.078125 -28.238281 C 21.582031 -29.457031 18.472656 -30.179688 16.03125 -30.179688 C 8.433594 -30.179688 1.664062 -25.132812 1.664062 -14.257812 C 1.664062 -5.660156 6.433594 0.777344 15.035156 0.777344 C 18.03125 0.777344 21.136719 -0.167969 22.800781 -1.554688 L 25.019531 -4.714844 L 25.019531 0 L 29.792969 0 Z M 15.753906 -2.886719 C 9.875 -2.886719 6.878906 -8.15625 6.878906 -14.8125 C 6.878906 -22.523438 10.875 -26.519531 16.03125 -26.519531 C 20.25 -26.519531 25.019531 -23.632812 25.019531 -16.03125 L 25.019531 -14.425781 C 25.019531 -5.992188 20.636719 -2.886719 15.753906 -2.886719 Z M 15.753906 -2.886719 "/></g></g></g><g fill="#ffffff" fill-opacity="1"><g transform="translate(159.043292, 207.374986)"><g><path d="M 28.183594 -29.402344 L 23.132812 -29.402344 L 14.3125 -3.496094 L 5.324219 -29.402344 L 0.0546875 -29.402344 L 11.207031 0 L 17.03125 0 Z M 28.183594 -29.402344 "/></g></g></g><g fill="#ffffff" fill-opacity="1"><g transform="translate(187.558201, 207.374986)"><g><path d="M 16.253906 -30.179688 C 6.269531 -30.179688 1.664062 -23.023438 1.664062 -14.703125 C 1.664062 -6.433594 6.269531 0.777344 16.253906 0.777344 C 26.242188 0.777344 30.84375 -6.433594 30.84375 -14.703125 C 30.84375 -23.023438 26.242188 -30.179688 16.253906 -30.179688 Z M 16.253906 -2.886719 C 10.320312 -2.886719 6.878906 -7.824219 6.878906 -14.703125 C 6.878906 -21.636719 10.320312 -26.519531 16.253906 -26.519531 C 22.191406 -26.519531 25.628906 -21.636719 25.628906 -14.703125 C 25.628906 -7.824219 22.191406 -2.886719 16.253906 -2.886719 Z M 16.253906 -2.886719 "/></g></g></g><g fill="#ffffff" fill-opacity="1"><g transform="translate(220.06742, 207.374986)"><g><path d="M 15.476562 -30.179688 C 8.101562 -30.179688 1.664062 -24.578125 1.664062 -14.644531 C 1.664062 -3.882812 7.324219 0.777344 14.757812 0.777344 C 21.304688 0.777344 26.183594 -2.550781 27.628906 -9.375 L 22.636719 -9.375 C 21.636719 -5.105469 18.917969 -2.886719 15.035156 -2.886719 C 10.652344 -2.886719 6.878906 -6.433594 6.878906 -14.980469 C 6.878906 -22.914062 10.761719 -26.519531 15.367188 -26.519531 C 19.304688 -26.519531 21.859375 -24.242188 22.914062 -19.527344 L 27.90625 -19.527344 C 27.015625 -25.964844 22.523438 -30.179688 15.476562 -30.179688 Z M 15.476562 -30.179688 "/></g></g></g><g fill="#ffffff" fill-opacity="1"><g transform="translate(249.414475, 207.374986)"><g><path d="M 20.96875 0 L 25.742188 0 C 25.296875 -3.273438 25.1875 -5.269531 25.1875 -7.488281 L 25.1875 -18.53125 C 25.1875 -19.804688 25.132812 -21.246094 25.019531 -22.414062 C 24.519531 -27.238281 21.582031 -30.179688 14.589844 -30.179688 C 8.101562 -30.179688 3.71875 -26.574219 3.273438 -20.304688 L 8.265625 -20.304688 C 8.597656 -24.355469 10.597656 -26.519531 14.589844 -26.519531 C 18.53125 -26.519531 20.082031 -24.742188 20.304688 -22.023438 C 20.414062 -20.914062 20.414062 -19.75 20.414062 -18.472656 L 20.414062 -17.699219 L 18.53125 -17.699219 C 6.988281 -17.699219 1.996094 -14.257812 1.996094 -7.601562 C 1.996094 -2.164062 6.15625 0.777344 11.484375 0.777344 C 14.3125 0.777344 16.863281 0.332031 18.863281 -1.054688 L 20.472656 -4.214844 Z M 13.09375 -2.886719 C 9.488281 -2.886719 7.210938 -4.4375 7.210938 -7.988281 C 7.210938 -13.039062 12.316406 -14.757812 20.414062 -14.148438 L 20.414062 -11.152344 C 20.414062 -5.824219 17.53125 -2.886719 13.09375 -2.886719 Z M 13.09375 -2.886719 "/></g></g></g><g fill="#ffffff" fill-opacity="1"><g transform="translate(278.872492, 207.374986)"><g><path d="M 9.820312 -25.519531 L 15.3125 -25.519531 L 15.3125 -29.179688 L 9.820312 -29.179688 L 9.820312 -36.003906 L 5.046875 -36.003906 L 5.046875 -29.179688 L 1.109375 -29.179688 L 1.109375 -25.519531 L 5.046875 -25.519531 L 5.046875 -8.378906 C 5.046875 -6.710938 5.046875 -5.492188 5.105469 -4.714844 C 5.382812 -1.054688 7.265625 0.445312 10.929688 0.445312 C 12.261719 0.445312 13.59375 0.386719 14.980469 0.167969 L 14.980469 -3.328125 C 11.261719 -2.886719 10.097656 -3.496094 9.875 -6.324219 C 9.820312 -7.101562 9.820312 -7.601562 9.820312 -8.597656 Z M 9.820312 -25.519531 "/></g></g></g><g fill="#ffffff" fill-opacity="1"><g transform="translate(296.236635, 207.374986)"><g><path d="M 28.238281 -15.535156 C 28.238281 -24.132812 23.746094 -30.179688 15.644531 -30.179688 C 7.601562 -30.179688 1.664062 -24.132812 1.664062 -14.589844 C 1.664062 -4.214844 7.378906 0.777344 15.035156 0.777344 C 21.082031 0.777344 26.683594 -2.386719 27.851562 -9.488281 L 22.855469 -9.488281 C 22.191406 -5.269531 19.085938 -2.886719 15.257812 -2.886719 C 10.929688 -2.886719 7.265625 -5.492188 6.824219 -13.257812 L 28.128906 -13.257812 C 28.238281 -14.3125 28.238281 -15.089844 28.238281 -15.535156 Z M 15.535156 -26.519531 C 20.359375 -26.519531 22.96875 -23.023438 23.410156 -16.921875 L 6.878906 -16.921875 C 7.433594 -23.191406 10.875 -26.519531 15.535156 -26.519531 Z M 15.535156 -26.519531 "/></g></g></g><g fill="#ffffff" fill-opacity="1"><g transform="translate(326.693229, 207.374986)"><g><path d="M 12.648438 -30.179688 C 6.601562 -30.179688 2.496094 -26.960938 2.496094 -21.582031 C 2.496094 -16.421875 6.710938 -14.257812 11.984375 -12.816406 C 16.921875 -11.484375 18.917969 -9.984375 18.917969 -7.15625 C 18.917969 -4.328125 16.367188 -2.886719 13.203125 -2.886719 C 9.820312 -2.886719 7.101562 -4.382812 6.324219 -8.65625 L 1.332031 -8.65625 C 2.21875 -1.996094 6.824219 0.777344 12.871094 0.777344 C 19.085938 0.777344 23.800781 -1.996094 23.800781 -7.546875 C 23.800781 -12.539062 20.582031 -15.199219 13.8125 -16.976562 C 9.820312 -18.03125 7.378906 -19.195312 7.378906 -22.136719 C 7.378906 -24.6875 8.933594 -26.519531 12.261719 -26.519531 C 15.699219 -26.519531 17.808594 -24.464844 18.472656 -21.027344 L 23.46875 -21.027344 C 22.855469 -26.40625 19.25 -30.179688 12.648438 -30.179688 Z M 12.648438 -30.179688 "/></g></g></g></svg>