<svg width="711" height="130" viewBox="0 0 711 130" fill="none" xmlns="http://www.w3.org/2000/svg">
<path d="M148.314 102.325V82.0041C150.482 84.7782 154.418 86.3323 158.978 86.3323C170.621 86.3323 178.485 77.9291 178.485 65.1163C178.485 52.3037 171.26 43.9005 159.947 43.9005C154.73 43.9005 150.713 45.8613 148.305 49.0419V44.5239H137.16V102.298L148.314 102.325ZM157.6 76.5375C151.575 76.5375 147.647 71.9654 147.647 65.1163C147.647 58.2673 151.575 53.6138 157.6 53.6138C163.457 53.6138 167.474 58.1318 167.474 65.1163C167.474 72.1009 163.484 76.5375 157.6 76.5375Z" fill="#22143D"/>
<path d="M204.847 86.6505C217.732 86.6505 226.935 77.6016 226.935 65.2755C226.935 52.9494 217.732 43.9005 204.847 43.9005C191.962 43.9005 182.76 52.9403 182.76 65.2755C182.76 77.6107 191.962 86.6505 204.847 86.6505ZM204.847 76.7824C198.617 76.7824 194.374 72.094 194.374 65.2755C194.374 58.457 198.626 53.6867 204.847 53.6867C211.069 53.6867 215.321 58.3659 215.321 65.2755C215.321 72.185 211.087 76.7824 204.847 76.7824Z" fill="#22143D"/>
<path d="M244.036 85.2255V26.8005H234.061V85.2255H244.036Z" fill="#22143D"/>
<path d="M279.146 45.3255L270.405 71.4899L261.582 45.3255H249.734L264.966 85.5749L258.807 102.325H269.871L275.819 85.7531L291.059 45.3433L279.146 45.3255Z" fill="#22143D"/>
<path d="M322.19 48.6323C319.864 45.7788 315.754 43.9005 310.651 43.9005C298.443 43.9005 291.061 52.2986 291.061 65.1032C291.061 77.908 298.415 86.3061 310.818 86.3061C315.717 86.3061 320.112 84.5 322.272 81.493V86.911C322.272 90.7398 319.699 93.4308 316.215 93.4308H296.953V102.325H318.043C327.503 102.325 333.811 96.6997 333.811 88.1301V44.5507H322.19V48.6323ZM312.646 76.5173C306.496 76.5173 302.433 72.0023 302.433 65.1032C302.433 58.2042 306.496 53.6079 312.646 53.6079C318.798 53.6079 322.935 58.123 322.935 65.1032C322.935 72.0836 318.871 76.5173 312.646 76.5173Z" fill="#22143D"/>
<path d="M362.311 86.6505C374.779 86.6505 383.686 77.6016 383.686 65.2755C383.686 52.9494 374.779 43.9005 362.311 43.9005C349.842 43.9005 340.936 52.9403 340.936 65.2755C340.936 77.6107 349.842 86.6505 362.311 86.6505ZM362.311 76.7824C356.271 76.7824 352.176 72.094 352.176 65.2755C352.176 58.457 356.271 53.6867 362.311 53.6867C368.35 53.6867 372.447 58.3659 372.447 65.2755C372.447 72.185 368.34 76.7824 362.311 76.7824Z" fill="#22143D"/>
<path d="M400.997 85.2255V62.9453C400.997 57.6993 404.562 53.91 409.624 53.91C414.438 53.91 417.672 57.4849 417.672 62.3823V85.2255H429.285V59.88C429.285 50.5139 423.147 43.9005 413.667 43.9005C407.943 43.9005 403.303 46.242 400.979 50.1564V44.544H389.385V85.2255H400.997Z" fill="#22143D"/>
<path d="M456.215 79.082L483.21 47.7601H457.426V41.6169H491.257V47.7601L464.434 79.082H492.468V85.2253H456.215V79.082Z" fill="#22143D"/>
<path d="M501.65 85.2253V23.7062H508.659V60.0466L529.166 41.6169H538.337L519.648 58.6622L540.067 85.2253H531.329L514.37 63.4211L508.659 68.6125V85.2253H501.65Z" fill="#22143D"/>
<path d="M547.455 24.658H585.353V31.3204H554.81V50.6155H579.643V57.2778H554.81V78.5629H586.305V85.2253H547.455V24.658Z" fill="#22143D"/>
<path d="M590.666 24.658H598.28L617.315 76.6594L636.524 24.658H644.051L621.123 85.2253H613.594L590.666 24.658Z" fill="#22143D"/>
<path d="M651.049 24.658H660.653L680.64 75.275L700.541 24.658H710.145V85.2253H702.964V36.9445L683.842 85.2253H677.353L658.231 36.9445V85.2253H651.049V24.658Z" fill="#22143D"/>
<path d="M60.0617 34.2992C59.1221 34.8685 58.3445 35.669 57.8032 36.6244C57.2618 37.5798 56.9746 38.6583 56.9691 39.7569L57.1505 56.4018L57.0753 67.5987L57.2571 84.243C57.2511 85.3415 56.9637 86.4197 56.4224 87.3751C55.8811 88.3304 55.1038 89.131 54.1645 89.7007L42.8297 96.4267C41.9055 96.9729 40.8556 97.2715 39.7814 97.2939C38.7071 97.3162 37.6447 97.0615 36.6968 96.5543L25.4653 90.1899C24.5168 89.6672 23.7308 88.8933 23.194 87.9533C22.6572 87.0134 22.3904 85.9441 22.4231 84.8633L22.4352 71.9336C22.4412 70.835 22.7286 69.7568 23.2699 68.8015C23.8113 67.8462 24.5886 67.0456 25.5278 66.4759L36.6134 59.8209C37.5375 59.2748 38.5874 58.9761 39.6617 58.9538C40.736 58.9314 41.7983 59.1862 42.7462 59.6934L50.023 63.8168L49.94 52.5302L42.6632 48.4068C41.7274 47.8618 40.6595 47.5852 39.5774 47.6077C38.4952 47.6302 37.4408 47.9509 36.5304 48.5344L15.8118 60.7579C14.8725 61.3276 14.0952 62.1282 13.5539 63.0835C13.0126 64.0388 12.7252 65.1171 12.7192 66.2156L12.6977 90.5947C12.665 91.6754 12.9317 92.7446 13.4684 93.6844C14.0051 94.6243 14.7909 95.3982 15.7392 95.9209L36.7786 107.843C37.7144 108.388 38.7823 108.665 39.8645 108.642C40.9466 108.62 42.0011 108.299 42.9115 107.715L63.8129 95.1708C64.7522 94.6011 65.5295 93.8005 66.0708 92.8452C66.6122 91.8899 66.8995 90.8116 66.9056 89.7131L66.8819 73.1585L66.7989 61.872L66.7757 45.3167C66.7812 44.218 67.0684 43.1396 67.6098 42.1842C68.1512 41.2288 68.9287 40.4283 69.8683 39.859L80.9538 33.204C81.878 32.6579 82.9279 32.3593 84.0022 32.337C85.0764 32.3146 86.1388 32.5693 87.0867 33.0765L98.3182 39.4409C99.2667 39.9635 100.053 40.7375 100.59 41.6774C101.126 42.6173 101.393 43.6867 101.36 44.7675L101.507 57.7868C101.5 58.8853 101.213 59.9636 100.672 60.9189C100.13 61.8742 99.3532 62.6748 98.4139 63.2445L87.3284 69.8995C86.4042 70.4455 85.3543 70.7442 84.28 70.7665C83.2058 70.7888 82.1434 70.5341 81.1955 70.027L73.918 65.9032L74.001 77.1897L81.2778 81.3131C82.2136 81.8582 83.2815 82.1348 84.3636 82.1122C85.4458 82.0897 86.5002 81.7691 87.4106 81.1856L108.312 68.641C109.251 68.0713 110.029 67.2707 110.57 66.3154C111.111 65.3601 111.399 64.2818 111.405 63.1833L111.425 38.8063C111.418 37.7329 111.135 36.6787 110.602 35.7457C110.069 34.8127 109.305 34.0322 108.383 33.4797L87.3441 21.5581C86.4083 21.013 85.3404 20.7365 84.2582 20.759C83.176 20.7815 82.1216 21.1021 81.2112 21.6856L60.0617 34.2992Z" fill="url(#paint0_linear_4028_135)"/>
<defs>
<linearGradient id="paint0_linear_4028_135" x1="24.6502" y1="43.5014" x2="99.4725" y2="85.8997" gradientUnits="userSpaceOnUse">
<stop stop-color="#A128C5"/>
<stop offset="1" stop-color="#7C3FE3"/>
</linearGradient>
</defs>
</svg>
